G75*
%MOIN*%
%OFA0B0*%
%FSLAX25Y25*%
%IPPOS*%
%LPD*%
%AMOC8*
5,1,8,0,0,1.08239X$1,22.5*
%
%ADD10C,0.00600*%
%ADD11C,0.08500*%
%ADD12OC8,0.08500*%
%ADD13C,0.05937*%
%ADD14R,0.03937X0.05512*%
%ADD15C,0.05200*%
%ADD16OC8,0.10000*%
%ADD17R,0.01969X0.03150*%
%ADD18R,0.01378X0.01378*%
%ADD19C,0.06000*%
%ADD20C,0.05150*%
%ADD21C,0.03200*%
D10*
X0006000Y0016000D02*
X0006003Y0016245D01*
X0006012Y0016491D01*
X0006027Y0016736D01*
X0006048Y0016980D01*
X0006075Y0017224D01*
X0006108Y0017467D01*
X0006147Y0017710D01*
X0006192Y0017951D01*
X0006243Y0018191D01*
X0006300Y0018430D01*
X0006362Y0018667D01*
X0006431Y0018903D01*
X0006505Y0019137D01*
X0006585Y0019369D01*
X0006670Y0019599D01*
X0006761Y0019827D01*
X0006858Y0020052D01*
X0006960Y0020276D01*
X0007068Y0020496D01*
X0007181Y0020714D01*
X0007299Y0020929D01*
X0007423Y0021141D01*
X0007551Y0021350D01*
X0007685Y0021556D01*
X0007824Y0021758D01*
X0007968Y0021957D01*
X0008117Y0022152D01*
X0008270Y0022344D01*
X0008428Y0022532D01*
X0008590Y0022716D01*
X0008758Y0022895D01*
X0008929Y0023071D01*
X0009105Y0023242D01*
X0009284Y0023410D01*
X0009468Y0023572D01*
X0009656Y0023730D01*
X0009848Y0023883D01*
X0010043Y0024032D01*
X0010242Y0024176D01*
X0010444Y0024315D01*
X0010650Y0024449D01*
X0010859Y0024577D01*
X0011071Y0024701D01*
X0011286Y0024819D01*
X0011504Y0024932D01*
X0011724Y0025040D01*
X0011948Y0025142D01*
X0012173Y0025239D01*
X0012401Y0025330D01*
X0012631Y0025415D01*
X0012863Y0025495D01*
X0013097Y0025569D01*
X0013333Y0025638D01*
X0013570Y0025700D01*
X0013809Y0025757D01*
X0014049Y0025808D01*
X0014290Y0025853D01*
X0014533Y0025892D01*
X0014776Y0025925D01*
X0015020Y0025952D01*
X0015264Y0025973D01*
X0015509Y0025988D01*
X0015755Y0025997D01*
X0016000Y0026000D01*
X0016245Y0025997D01*
X0016491Y0025988D01*
X0016736Y0025973D01*
X0016980Y0025952D01*
X0017224Y0025925D01*
X0017467Y0025892D01*
X0017710Y0025853D01*
X0017951Y0025808D01*
X0018191Y0025757D01*
X0018430Y0025700D01*
X0018667Y0025638D01*
X0018903Y0025569D01*
X0019137Y0025495D01*
X0019369Y0025415D01*
X0019599Y0025330D01*
X0019827Y0025239D01*
X0020052Y0025142D01*
X0020276Y0025040D01*
X0020496Y0024932D01*
X0020714Y0024819D01*
X0020929Y0024701D01*
X0021141Y0024577D01*
X0021350Y0024449D01*
X0021556Y0024315D01*
X0021758Y0024176D01*
X0021957Y0024032D01*
X0022152Y0023883D01*
X0022344Y0023730D01*
X0022532Y0023572D01*
X0022716Y0023410D01*
X0022895Y0023242D01*
X0023071Y0023071D01*
X0023242Y0022895D01*
X0023410Y0022716D01*
X0023572Y0022532D01*
X0023730Y0022344D01*
X0023883Y0022152D01*
X0024032Y0021957D01*
X0024176Y0021758D01*
X0024315Y0021556D01*
X0024449Y0021350D01*
X0024577Y0021141D01*
X0024701Y0020929D01*
X0024819Y0020714D01*
X0024932Y0020496D01*
X0025040Y0020276D01*
X0025142Y0020052D01*
X0025239Y0019827D01*
X0025330Y0019599D01*
X0025415Y0019369D01*
X0025495Y0019137D01*
X0025569Y0018903D01*
X0025638Y0018667D01*
X0025700Y0018430D01*
X0025757Y0018191D01*
X0025808Y0017951D01*
X0025853Y0017710D01*
X0025892Y0017467D01*
X0025925Y0017224D01*
X0025952Y0016980D01*
X0025973Y0016736D01*
X0025988Y0016491D01*
X0025997Y0016245D01*
X0026000Y0016000D01*
X0025997Y0015755D01*
X0025988Y0015509D01*
X0025973Y0015264D01*
X0025952Y0015020D01*
X0025925Y0014776D01*
X0025892Y0014533D01*
X0025853Y0014290D01*
X0025808Y0014049D01*
X0025757Y0013809D01*
X0025700Y0013570D01*
X0025638Y0013333D01*
X0025569Y0013097D01*
X0025495Y0012863D01*
X0025415Y0012631D01*
X0025330Y0012401D01*
X0025239Y0012173D01*
X0025142Y0011948D01*
X0025040Y0011724D01*
X0024932Y0011504D01*
X0024819Y0011286D01*
X0024701Y0011071D01*
X0024577Y0010859D01*
X0024449Y0010650D01*
X0024315Y0010444D01*
X0024176Y0010242D01*
X0024032Y0010043D01*
X0023883Y0009848D01*
X0023730Y0009656D01*
X0023572Y0009468D01*
X0023410Y0009284D01*
X0023242Y0009105D01*
X0023071Y0008929D01*
X0022895Y0008758D01*
X0022716Y0008590D01*
X0022532Y0008428D01*
X0022344Y0008270D01*
X0022152Y0008117D01*
X0021957Y0007968D01*
X0021758Y0007824D01*
X0021556Y0007685D01*
X0021350Y0007551D01*
X0021141Y0007423D01*
X0020929Y0007299D01*
X0020714Y0007181D01*
X0020496Y0007068D01*
X0020276Y0006960D01*
X0020052Y0006858D01*
X0019827Y0006761D01*
X0019599Y0006670D01*
X0019369Y0006585D01*
X0019137Y0006505D01*
X0018903Y0006431D01*
X0018667Y0006362D01*
X0018430Y0006300D01*
X0018191Y0006243D01*
X0017951Y0006192D01*
X0017710Y0006147D01*
X0017467Y0006108D01*
X0017224Y0006075D01*
X0016980Y0006048D01*
X0016736Y0006027D01*
X0016491Y0006012D01*
X0016245Y0006003D01*
X0016000Y0006000D01*
X0015755Y0006003D01*
X0015509Y0006012D01*
X0015264Y0006027D01*
X0015020Y0006048D01*
X0014776Y0006075D01*
X0014533Y0006108D01*
X0014290Y0006147D01*
X0014049Y0006192D01*
X0013809Y0006243D01*
X0013570Y0006300D01*
X0013333Y0006362D01*
X0013097Y0006431D01*
X0012863Y0006505D01*
X0012631Y0006585D01*
X0012401Y0006670D01*
X0012173Y0006761D01*
X0011948Y0006858D01*
X0011724Y0006960D01*
X0011504Y0007068D01*
X0011286Y0007181D01*
X0011071Y0007299D01*
X0010859Y0007423D01*
X0010650Y0007551D01*
X0010444Y0007685D01*
X0010242Y0007824D01*
X0010043Y0007968D01*
X0009848Y0008117D01*
X0009656Y0008270D01*
X0009468Y0008428D01*
X0009284Y0008590D01*
X0009105Y0008758D01*
X0008929Y0008929D01*
X0008758Y0009105D01*
X0008590Y0009284D01*
X0008428Y0009468D01*
X0008270Y0009656D01*
X0008117Y0009848D01*
X0007968Y0010043D01*
X0007824Y0010242D01*
X0007685Y0010444D01*
X0007551Y0010650D01*
X0007423Y0010859D01*
X0007299Y0011071D01*
X0007181Y0011286D01*
X0007068Y0011504D01*
X0006960Y0011724D01*
X0006858Y0011948D01*
X0006761Y0012173D01*
X0006670Y0012401D01*
X0006585Y0012631D01*
X0006505Y0012863D01*
X0006431Y0013097D01*
X0006362Y0013333D01*
X0006300Y0013570D01*
X0006243Y0013809D01*
X0006192Y0014049D01*
X0006147Y0014290D01*
X0006108Y0014533D01*
X0006075Y0014776D01*
X0006048Y0015020D01*
X0006027Y0015264D01*
X0006012Y0015509D01*
X0006003Y0015755D01*
X0006000Y0016000D01*
X0006000Y0301000D02*
X0006003Y0301245D01*
X0006012Y0301491D01*
X0006027Y0301736D01*
X0006048Y0301980D01*
X0006075Y0302224D01*
X0006108Y0302467D01*
X0006147Y0302710D01*
X0006192Y0302951D01*
X0006243Y0303191D01*
X0006300Y0303430D01*
X0006362Y0303667D01*
X0006431Y0303903D01*
X0006505Y0304137D01*
X0006585Y0304369D01*
X0006670Y0304599D01*
X0006761Y0304827D01*
X0006858Y0305052D01*
X0006960Y0305276D01*
X0007068Y0305496D01*
X0007181Y0305714D01*
X0007299Y0305929D01*
X0007423Y0306141D01*
X0007551Y0306350D01*
X0007685Y0306556D01*
X0007824Y0306758D01*
X0007968Y0306957D01*
X0008117Y0307152D01*
X0008270Y0307344D01*
X0008428Y0307532D01*
X0008590Y0307716D01*
X0008758Y0307895D01*
X0008929Y0308071D01*
X0009105Y0308242D01*
X0009284Y0308410D01*
X0009468Y0308572D01*
X0009656Y0308730D01*
X0009848Y0308883D01*
X0010043Y0309032D01*
X0010242Y0309176D01*
X0010444Y0309315D01*
X0010650Y0309449D01*
X0010859Y0309577D01*
X0011071Y0309701D01*
X0011286Y0309819D01*
X0011504Y0309932D01*
X0011724Y0310040D01*
X0011948Y0310142D01*
X0012173Y0310239D01*
X0012401Y0310330D01*
X0012631Y0310415D01*
X0012863Y0310495D01*
X0013097Y0310569D01*
X0013333Y0310638D01*
X0013570Y0310700D01*
X0013809Y0310757D01*
X0014049Y0310808D01*
X0014290Y0310853D01*
X0014533Y0310892D01*
X0014776Y0310925D01*
X0015020Y0310952D01*
X0015264Y0310973D01*
X0015509Y0310988D01*
X0015755Y0310997D01*
X0016000Y0311000D01*
X0016245Y0310997D01*
X0016491Y0310988D01*
X0016736Y0310973D01*
X0016980Y0310952D01*
X0017224Y0310925D01*
X0017467Y0310892D01*
X0017710Y0310853D01*
X0017951Y0310808D01*
X0018191Y0310757D01*
X0018430Y0310700D01*
X0018667Y0310638D01*
X0018903Y0310569D01*
X0019137Y0310495D01*
X0019369Y0310415D01*
X0019599Y0310330D01*
X0019827Y0310239D01*
X0020052Y0310142D01*
X0020276Y0310040D01*
X0020496Y0309932D01*
X0020714Y0309819D01*
X0020929Y0309701D01*
X0021141Y0309577D01*
X0021350Y0309449D01*
X0021556Y0309315D01*
X0021758Y0309176D01*
X0021957Y0309032D01*
X0022152Y0308883D01*
X0022344Y0308730D01*
X0022532Y0308572D01*
X0022716Y0308410D01*
X0022895Y0308242D01*
X0023071Y0308071D01*
X0023242Y0307895D01*
X0023410Y0307716D01*
X0023572Y0307532D01*
X0023730Y0307344D01*
X0023883Y0307152D01*
X0024032Y0306957D01*
X0024176Y0306758D01*
X0024315Y0306556D01*
X0024449Y0306350D01*
X0024577Y0306141D01*
X0024701Y0305929D01*
X0024819Y0305714D01*
X0024932Y0305496D01*
X0025040Y0305276D01*
X0025142Y0305052D01*
X0025239Y0304827D01*
X0025330Y0304599D01*
X0025415Y0304369D01*
X0025495Y0304137D01*
X0025569Y0303903D01*
X0025638Y0303667D01*
X0025700Y0303430D01*
X0025757Y0303191D01*
X0025808Y0302951D01*
X0025853Y0302710D01*
X0025892Y0302467D01*
X0025925Y0302224D01*
X0025952Y0301980D01*
X0025973Y0301736D01*
X0025988Y0301491D01*
X0025997Y0301245D01*
X0026000Y0301000D01*
X0025997Y0300755D01*
X0025988Y0300509D01*
X0025973Y0300264D01*
X0025952Y0300020D01*
X0025925Y0299776D01*
X0025892Y0299533D01*
X0025853Y0299290D01*
X0025808Y0299049D01*
X0025757Y0298809D01*
X0025700Y0298570D01*
X0025638Y0298333D01*
X0025569Y0298097D01*
X0025495Y0297863D01*
X0025415Y0297631D01*
X0025330Y0297401D01*
X0025239Y0297173D01*
X0025142Y0296948D01*
X0025040Y0296724D01*
X0024932Y0296504D01*
X0024819Y0296286D01*
X0024701Y0296071D01*
X0024577Y0295859D01*
X0024449Y0295650D01*
X0024315Y0295444D01*
X0024176Y0295242D01*
X0024032Y0295043D01*
X0023883Y0294848D01*
X0023730Y0294656D01*
X0023572Y0294468D01*
X0023410Y0294284D01*
X0023242Y0294105D01*
X0023071Y0293929D01*
X0022895Y0293758D01*
X0022716Y0293590D01*
X0022532Y0293428D01*
X0022344Y0293270D01*
X0022152Y0293117D01*
X0021957Y0292968D01*
X0021758Y0292824D01*
X0021556Y0292685D01*
X0021350Y0292551D01*
X0021141Y0292423D01*
X0020929Y0292299D01*
X0020714Y0292181D01*
X0020496Y0292068D01*
X0020276Y0291960D01*
X0020052Y0291858D01*
X0019827Y0291761D01*
X0019599Y0291670D01*
X0019369Y0291585D01*
X0019137Y0291505D01*
X0018903Y0291431D01*
X0018667Y0291362D01*
X0018430Y0291300D01*
X0018191Y0291243D01*
X0017951Y0291192D01*
X0017710Y0291147D01*
X0017467Y0291108D01*
X0017224Y0291075D01*
X0016980Y0291048D01*
X0016736Y0291027D01*
X0016491Y0291012D01*
X0016245Y0291003D01*
X0016000Y0291000D01*
X0015755Y0291003D01*
X0015509Y0291012D01*
X0015264Y0291027D01*
X0015020Y0291048D01*
X0014776Y0291075D01*
X0014533Y0291108D01*
X0014290Y0291147D01*
X0014049Y0291192D01*
X0013809Y0291243D01*
X0013570Y0291300D01*
X0013333Y0291362D01*
X0013097Y0291431D01*
X0012863Y0291505D01*
X0012631Y0291585D01*
X0012401Y0291670D01*
X0012173Y0291761D01*
X0011948Y0291858D01*
X0011724Y0291960D01*
X0011504Y0292068D01*
X0011286Y0292181D01*
X0011071Y0292299D01*
X0010859Y0292423D01*
X0010650Y0292551D01*
X0010444Y0292685D01*
X0010242Y0292824D01*
X0010043Y0292968D01*
X0009848Y0293117D01*
X0009656Y0293270D01*
X0009468Y0293428D01*
X0009284Y0293590D01*
X0009105Y0293758D01*
X0008929Y0293929D01*
X0008758Y0294105D01*
X0008590Y0294284D01*
X0008428Y0294468D01*
X0008270Y0294656D01*
X0008117Y0294848D01*
X0007968Y0295043D01*
X0007824Y0295242D01*
X0007685Y0295444D01*
X0007551Y0295650D01*
X0007423Y0295859D01*
X0007299Y0296071D01*
X0007181Y0296286D01*
X0007068Y0296504D01*
X0006960Y0296724D01*
X0006858Y0296948D01*
X0006761Y0297173D01*
X0006670Y0297401D01*
X0006585Y0297631D01*
X0006505Y0297863D01*
X0006431Y0298097D01*
X0006362Y0298333D01*
X0006300Y0298570D01*
X0006243Y0298809D01*
X0006192Y0299049D01*
X0006147Y0299290D01*
X0006108Y0299533D01*
X0006075Y0299776D01*
X0006048Y0300020D01*
X0006027Y0300264D01*
X0006012Y0300509D01*
X0006003Y0300755D01*
X0006000Y0301000D01*
X0371000Y0301000D02*
X0371003Y0301245D01*
X0371012Y0301491D01*
X0371027Y0301736D01*
X0371048Y0301980D01*
X0371075Y0302224D01*
X0371108Y0302467D01*
X0371147Y0302710D01*
X0371192Y0302951D01*
X0371243Y0303191D01*
X0371300Y0303430D01*
X0371362Y0303667D01*
X0371431Y0303903D01*
X0371505Y0304137D01*
X0371585Y0304369D01*
X0371670Y0304599D01*
X0371761Y0304827D01*
X0371858Y0305052D01*
X0371960Y0305276D01*
X0372068Y0305496D01*
X0372181Y0305714D01*
X0372299Y0305929D01*
X0372423Y0306141D01*
X0372551Y0306350D01*
X0372685Y0306556D01*
X0372824Y0306758D01*
X0372968Y0306957D01*
X0373117Y0307152D01*
X0373270Y0307344D01*
X0373428Y0307532D01*
X0373590Y0307716D01*
X0373758Y0307895D01*
X0373929Y0308071D01*
X0374105Y0308242D01*
X0374284Y0308410D01*
X0374468Y0308572D01*
X0374656Y0308730D01*
X0374848Y0308883D01*
X0375043Y0309032D01*
X0375242Y0309176D01*
X0375444Y0309315D01*
X0375650Y0309449D01*
X0375859Y0309577D01*
X0376071Y0309701D01*
X0376286Y0309819D01*
X0376504Y0309932D01*
X0376724Y0310040D01*
X0376948Y0310142D01*
X0377173Y0310239D01*
X0377401Y0310330D01*
X0377631Y0310415D01*
X0377863Y0310495D01*
X0378097Y0310569D01*
X0378333Y0310638D01*
X0378570Y0310700D01*
X0378809Y0310757D01*
X0379049Y0310808D01*
X0379290Y0310853D01*
X0379533Y0310892D01*
X0379776Y0310925D01*
X0380020Y0310952D01*
X0380264Y0310973D01*
X0380509Y0310988D01*
X0380755Y0310997D01*
X0381000Y0311000D01*
X0381245Y0310997D01*
X0381491Y0310988D01*
X0381736Y0310973D01*
X0381980Y0310952D01*
X0382224Y0310925D01*
X0382467Y0310892D01*
X0382710Y0310853D01*
X0382951Y0310808D01*
X0383191Y0310757D01*
X0383430Y0310700D01*
X0383667Y0310638D01*
X0383903Y0310569D01*
X0384137Y0310495D01*
X0384369Y0310415D01*
X0384599Y0310330D01*
X0384827Y0310239D01*
X0385052Y0310142D01*
X0385276Y0310040D01*
X0385496Y0309932D01*
X0385714Y0309819D01*
X0385929Y0309701D01*
X0386141Y0309577D01*
X0386350Y0309449D01*
X0386556Y0309315D01*
X0386758Y0309176D01*
X0386957Y0309032D01*
X0387152Y0308883D01*
X0387344Y0308730D01*
X0387532Y0308572D01*
X0387716Y0308410D01*
X0387895Y0308242D01*
X0388071Y0308071D01*
X0388242Y0307895D01*
X0388410Y0307716D01*
X0388572Y0307532D01*
X0388730Y0307344D01*
X0388883Y0307152D01*
X0389032Y0306957D01*
X0389176Y0306758D01*
X0389315Y0306556D01*
X0389449Y0306350D01*
X0389577Y0306141D01*
X0389701Y0305929D01*
X0389819Y0305714D01*
X0389932Y0305496D01*
X0390040Y0305276D01*
X0390142Y0305052D01*
X0390239Y0304827D01*
X0390330Y0304599D01*
X0390415Y0304369D01*
X0390495Y0304137D01*
X0390569Y0303903D01*
X0390638Y0303667D01*
X0390700Y0303430D01*
X0390757Y0303191D01*
X0390808Y0302951D01*
X0390853Y0302710D01*
X0390892Y0302467D01*
X0390925Y0302224D01*
X0390952Y0301980D01*
X0390973Y0301736D01*
X0390988Y0301491D01*
X0390997Y0301245D01*
X0391000Y0301000D01*
X0390997Y0300755D01*
X0390988Y0300509D01*
X0390973Y0300264D01*
X0390952Y0300020D01*
X0390925Y0299776D01*
X0390892Y0299533D01*
X0390853Y0299290D01*
X0390808Y0299049D01*
X0390757Y0298809D01*
X0390700Y0298570D01*
X0390638Y0298333D01*
X0390569Y0298097D01*
X0390495Y0297863D01*
X0390415Y0297631D01*
X0390330Y0297401D01*
X0390239Y0297173D01*
X0390142Y0296948D01*
X0390040Y0296724D01*
X0389932Y0296504D01*
X0389819Y0296286D01*
X0389701Y0296071D01*
X0389577Y0295859D01*
X0389449Y0295650D01*
X0389315Y0295444D01*
X0389176Y0295242D01*
X0389032Y0295043D01*
X0388883Y0294848D01*
X0388730Y0294656D01*
X0388572Y0294468D01*
X0388410Y0294284D01*
X0388242Y0294105D01*
X0388071Y0293929D01*
X0387895Y0293758D01*
X0387716Y0293590D01*
X0387532Y0293428D01*
X0387344Y0293270D01*
X0387152Y0293117D01*
X0386957Y0292968D01*
X0386758Y0292824D01*
X0386556Y0292685D01*
X0386350Y0292551D01*
X0386141Y0292423D01*
X0385929Y0292299D01*
X0385714Y0292181D01*
X0385496Y0292068D01*
X0385276Y0291960D01*
X0385052Y0291858D01*
X0384827Y0291761D01*
X0384599Y0291670D01*
X0384369Y0291585D01*
X0384137Y0291505D01*
X0383903Y0291431D01*
X0383667Y0291362D01*
X0383430Y0291300D01*
X0383191Y0291243D01*
X0382951Y0291192D01*
X0382710Y0291147D01*
X0382467Y0291108D01*
X0382224Y0291075D01*
X0381980Y0291048D01*
X0381736Y0291027D01*
X0381491Y0291012D01*
X0381245Y0291003D01*
X0381000Y0291000D01*
X0380755Y0291003D01*
X0380509Y0291012D01*
X0380264Y0291027D01*
X0380020Y0291048D01*
X0379776Y0291075D01*
X0379533Y0291108D01*
X0379290Y0291147D01*
X0379049Y0291192D01*
X0378809Y0291243D01*
X0378570Y0291300D01*
X0378333Y0291362D01*
X0378097Y0291431D01*
X0377863Y0291505D01*
X0377631Y0291585D01*
X0377401Y0291670D01*
X0377173Y0291761D01*
X0376948Y0291858D01*
X0376724Y0291960D01*
X0376504Y0292068D01*
X0376286Y0292181D01*
X0376071Y0292299D01*
X0375859Y0292423D01*
X0375650Y0292551D01*
X0375444Y0292685D01*
X0375242Y0292824D01*
X0375043Y0292968D01*
X0374848Y0293117D01*
X0374656Y0293270D01*
X0374468Y0293428D01*
X0374284Y0293590D01*
X0374105Y0293758D01*
X0373929Y0293929D01*
X0373758Y0294105D01*
X0373590Y0294284D01*
X0373428Y0294468D01*
X0373270Y0294656D01*
X0373117Y0294848D01*
X0372968Y0295043D01*
X0372824Y0295242D01*
X0372685Y0295444D01*
X0372551Y0295650D01*
X0372423Y0295859D01*
X0372299Y0296071D01*
X0372181Y0296286D01*
X0372068Y0296504D01*
X0371960Y0296724D01*
X0371858Y0296948D01*
X0371761Y0297173D01*
X0371670Y0297401D01*
X0371585Y0297631D01*
X0371505Y0297863D01*
X0371431Y0298097D01*
X0371362Y0298333D01*
X0371300Y0298570D01*
X0371243Y0298809D01*
X0371192Y0299049D01*
X0371147Y0299290D01*
X0371108Y0299533D01*
X0371075Y0299776D01*
X0371048Y0300020D01*
X0371027Y0300264D01*
X0371012Y0300509D01*
X0371003Y0300755D01*
X0371000Y0301000D01*
X0371000Y0016000D02*
X0371003Y0016245D01*
X0371012Y0016491D01*
X0371027Y0016736D01*
X0371048Y0016980D01*
X0371075Y0017224D01*
X0371108Y0017467D01*
X0371147Y0017710D01*
X0371192Y0017951D01*
X0371243Y0018191D01*
X0371300Y0018430D01*
X0371362Y0018667D01*
X0371431Y0018903D01*
X0371505Y0019137D01*
X0371585Y0019369D01*
X0371670Y0019599D01*
X0371761Y0019827D01*
X0371858Y0020052D01*
X0371960Y0020276D01*
X0372068Y0020496D01*
X0372181Y0020714D01*
X0372299Y0020929D01*
X0372423Y0021141D01*
X0372551Y0021350D01*
X0372685Y0021556D01*
X0372824Y0021758D01*
X0372968Y0021957D01*
X0373117Y0022152D01*
X0373270Y0022344D01*
X0373428Y0022532D01*
X0373590Y0022716D01*
X0373758Y0022895D01*
X0373929Y0023071D01*
X0374105Y0023242D01*
X0374284Y0023410D01*
X0374468Y0023572D01*
X0374656Y0023730D01*
X0374848Y0023883D01*
X0375043Y0024032D01*
X0375242Y0024176D01*
X0375444Y0024315D01*
X0375650Y0024449D01*
X0375859Y0024577D01*
X0376071Y0024701D01*
X0376286Y0024819D01*
X0376504Y0024932D01*
X0376724Y0025040D01*
X0376948Y0025142D01*
X0377173Y0025239D01*
X0377401Y0025330D01*
X0377631Y0025415D01*
X0377863Y0025495D01*
X0378097Y0025569D01*
X0378333Y0025638D01*
X0378570Y0025700D01*
X0378809Y0025757D01*
X0379049Y0025808D01*
X0379290Y0025853D01*
X0379533Y0025892D01*
X0379776Y0025925D01*
X0380020Y0025952D01*
X0380264Y0025973D01*
X0380509Y0025988D01*
X0380755Y0025997D01*
X0381000Y0026000D01*
X0381245Y0025997D01*
X0381491Y0025988D01*
X0381736Y0025973D01*
X0381980Y0025952D01*
X0382224Y0025925D01*
X0382467Y0025892D01*
X0382710Y0025853D01*
X0382951Y0025808D01*
X0383191Y0025757D01*
X0383430Y0025700D01*
X0383667Y0025638D01*
X0383903Y0025569D01*
X0384137Y0025495D01*
X0384369Y0025415D01*
X0384599Y0025330D01*
X0384827Y0025239D01*
X0385052Y0025142D01*
X0385276Y0025040D01*
X0385496Y0024932D01*
X0385714Y0024819D01*
X0385929Y0024701D01*
X0386141Y0024577D01*
X0386350Y0024449D01*
X0386556Y0024315D01*
X0386758Y0024176D01*
X0386957Y0024032D01*
X0387152Y0023883D01*
X0387344Y0023730D01*
X0387532Y0023572D01*
X0387716Y0023410D01*
X0387895Y0023242D01*
X0388071Y0023071D01*
X0388242Y0022895D01*
X0388410Y0022716D01*
X0388572Y0022532D01*
X0388730Y0022344D01*
X0388883Y0022152D01*
X0389032Y0021957D01*
X0389176Y0021758D01*
X0389315Y0021556D01*
X0389449Y0021350D01*
X0389577Y0021141D01*
X0389701Y0020929D01*
X0389819Y0020714D01*
X0389932Y0020496D01*
X0390040Y0020276D01*
X0390142Y0020052D01*
X0390239Y0019827D01*
X0390330Y0019599D01*
X0390415Y0019369D01*
X0390495Y0019137D01*
X0390569Y0018903D01*
X0390638Y0018667D01*
X0390700Y0018430D01*
X0390757Y0018191D01*
X0390808Y0017951D01*
X0390853Y0017710D01*
X0390892Y0017467D01*
X0390925Y0017224D01*
X0390952Y0016980D01*
X0390973Y0016736D01*
X0390988Y0016491D01*
X0390997Y0016245D01*
X0391000Y0016000D01*
X0390997Y0015755D01*
X0390988Y0015509D01*
X0390973Y0015264D01*
X0390952Y0015020D01*
X0390925Y0014776D01*
X0390892Y0014533D01*
X0390853Y0014290D01*
X0390808Y0014049D01*
X0390757Y0013809D01*
X0390700Y0013570D01*
X0390638Y0013333D01*
X0390569Y0013097D01*
X0390495Y0012863D01*
X0390415Y0012631D01*
X0390330Y0012401D01*
X0390239Y0012173D01*
X0390142Y0011948D01*
X0390040Y0011724D01*
X0389932Y0011504D01*
X0389819Y0011286D01*
X0389701Y0011071D01*
X0389577Y0010859D01*
X0389449Y0010650D01*
X0389315Y0010444D01*
X0389176Y0010242D01*
X0389032Y0010043D01*
X0388883Y0009848D01*
X0388730Y0009656D01*
X0388572Y0009468D01*
X0388410Y0009284D01*
X0388242Y0009105D01*
X0388071Y0008929D01*
X0387895Y0008758D01*
X0387716Y0008590D01*
X0387532Y0008428D01*
X0387344Y0008270D01*
X0387152Y0008117D01*
X0386957Y0007968D01*
X0386758Y0007824D01*
X0386556Y0007685D01*
X0386350Y0007551D01*
X0386141Y0007423D01*
X0385929Y0007299D01*
X0385714Y0007181D01*
X0385496Y0007068D01*
X0385276Y0006960D01*
X0385052Y0006858D01*
X0384827Y0006761D01*
X0384599Y0006670D01*
X0384369Y0006585D01*
X0384137Y0006505D01*
X0383903Y0006431D01*
X0383667Y0006362D01*
X0383430Y0006300D01*
X0383191Y0006243D01*
X0382951Y0006192D01*
X0382710Y0006147D01*
X0382467Y0006108D01*
X0382224Y0006075D01*
X0381980Y0006048D01*
X0381736Y0006027D01*
X0381491Y0006012D01*
X0381245Y0006003D01*
X0381000Y0006000D01*
X0380755Y0006003D01*
X0380509Y0006012D01*
X0380264Y0006027D01*
X0380020Y0006048D01*
X0379776Y0006075D01*
X0379533Y0006108D01*
X0379290Y0006147D01*
X0379049Y0006192D01*
X0378809Y0006243D01*
X0378570Y0006300D01*
X0378333Y0006362D01*
X0378097Y0006431D01*
X0377863Y0006505D01*
X0377631Y0006585D01*
X0377401Y0006670D01*
X0377173Y0006761D01*
X0376948Y0006858D01*
X0376724Y0006960D01*
X0376504Y0007068D01*
X0376286Y0007181D01*
X0376071Y0007299D01*
X0375859Y0007423D01*
X0375650Y0007551D01*
X0375444Y0007685D01*
X0375242Y0007824D01*
X0375043Y0007968D01*
X0374848Y0008117D01*
X0374656Y0008270D01*
X0374468Y0008428D01*
X0374284Y0008590D01*
X0374105Y0008758D01*
X0373929Y0008929D01*
X0373758Y0009105D01*
X0373590Y0009284D01*
X0373428Y0009468D01*
X0373270Y0009656D01*
X0373117Y0009848D01*
X0372968Y0010043D01*
X0372824Y0010242D01*
X0372685Y0010444D01*
X0372551Y0010650D01*
X0372423Y0010859D01*
X0372299Y0011071D01*
X0372181Y0011286D01*
X0372068Y0011504D01*
X0371960Y0011724D01*
X0371858Y0011948D01*
X0371761Y0012173D01*
X0371670Y0012401D01*
X0371585Y0012631D01*
X0371505Y0012863D01*
X0371431Y0013097D01*
X0371362Y0013333D01*
X0371300Y0013570D01*
X0371243Y0013809D01*
X0371192Y0014049D01*
X0371147Y0014290D01*
X0371108Y0014533D01*
X0371075Y0014776D01*
X0371048Y0015020D01*
X0371027Y0015264D01*
X0371012Y0015509D01*
X0371003Y0015755D01*
X0371000Y0016000D01*
D11*
X0276000Y0206000D03*
X0276000Y0301000D03*
D12*
X0276000Y0241000D03*
X0276000Y0146000D03*
D13*
X0213969Y0166000D02*
X0208031Y0166000D01*
X0208031Y0176000D02*
X0213969Y0176000D01*
X0208969Y0271000D02*
X0203031Y0271000D01*
X0203031Y0281000D02*
X0208969Y0281000D01*
X0053969Y0281000D02*
X0048031Y0281000D01*
X0048031Y0271000D02*
X0053969Y0271000D01*
X0053969Y0261000D02*
X0048031Y0261000D01*
X0048031Y0251000D02*
X0053969Y0251000D01*
X0053969Y0191000D02*
X0048031Y0191000D01*
X0048031Y0181000D02*
X0053969Y0181000D01*
X0053969Y0171000D02*
X0048031Y0171000D01*
X0048031Y0161000D02*
X0053969Y0161000D01*
D14*
X0097260Y0105331D03*
X0104740Y0105331D03*
X0101000Y0096669D03*
X0142260Y0080331D03*
X0149740Y0080331D03*
X0146000Y0071669D03*
D15*
X0373500Y0103900D02*
X0373500Y0109100D01*
X0373500Y0143900D02*
X0373500Y0149100D01*
D16*
X0166000Y0031000D03*
X0146000Y0051000D03*
X0121000Y0031000D03*
X0101000Y0051000D03*
D17*
X0187555Y0149000D03*
X0194445Y0149000D03*
X0189445Y0249000D03*
X0182555Y0249000D03*
D18*
X0184031Y0249000D03*
X0187969Y0249000D03*
X0189031Y0149000D03*
X0192969Y0149000D03*
D19*
X0265500Y0076000D02*
X0271500Y0076000D01*
X0305500Y0056000D02*
X0311500Y0056000D01*
X0271500Y0036000D02*
X0265500Y0036000D01*
X0211500Y0056000D02*
X0205500Y0056000D01*
X0365500Y0036000D02*
X0371500Y0036000D01*
X0371500Y0076000D02*
X0365500Y0076000D01*
D20*
X0153575Y0141000D02*
X0148425Y0141000D01*
X0148425Y0151000D02*
X0153575Y0151000D01*
X0153575Y0161000D02*
X0148425Y0161000D01*
X0148425Y0171000D02*
X0153575Y0171000D01*
X0153575Y0181000D02*
X0148425Y0181000D01*
X0148425Y0191000D02*
X0153575Y0191000D01*
X0153575Y0201000D02*
X0148425Y0201000D01*
X0148425Y0211000D02*
X0153575Y0211000D01*
X0153575Y0231000D02*
X0148425Y0231000D01*
X0148425Y0241000D02*
X0153575Y0241000D01*
X0153575Y0251000D02*
X0148425Y0251000D01*
X0148425Y0261000D02*
X0153575Y0261000D01*
X0153575Y0271000D02*
X0148425Y0271000D01*
X0148425Y0281000D02*
X0153575Y0281000D01*
X0153575Y0291000D02*
X0148425Y0291000D01*
X0148425Y0301000D02*
X0153575Y0301000D01*
X0103575Y0301000D02*
X0098425Y0301000D01*
X0098425Y0291000D02*
X0103575Y0291000D01*
X0103575Y0281000D02*
X0098425Y0281000D01*
X0098425Y0271000D02*
X0103575Y0271000D01*
X0103575Y0261000D02*
X0098425Y0261000D01*
X0098425Y0251000D02*
X0103575Y0251000D01*
X0103575Y0241000D02*
X0098425Y0241000D01*
X0098425Y0231000D02*
X0103575Y0231000D01*
X0103575Y0211000D02*
X0098425Y0211000D01*
X0098425Y0201000D02*
X0103575Y0201000D01*
X0103575Y0191000D02*
X0098425Y0191000D01*
X0098425Y0181000D02*
X0103575Y0181000D01*
X0103575Y0171000D02*
X0098425Y0171000D01*
X0098425Y0161000D02*
X0103575Y0161000D01*
X0103575Y0151000D02*
X0098425Y0151000D01*
X0098425Y0141000D02*
X0103575Y0141000D01*
D21*
X0101700Y0141600D02*
X0101000Y0141000D01*
X0101700Y0141600D02*
X0109300Y0149200D01*
X0109300Y0192900D01*
X0101700Y0200500D01*
X0101000Y0201000D01*
X0099800Y0202400D01*
X0092200Y0210000D01*
X0092200Y0211900D01*
X0099800Y0219500D01*
X0099800Y0230900D01*
X0101000Y0231000D01*
X0101000Y0211000D02*
X0101700Y0210000D01*
X0113100Y0210000D01*
X0113100Y0143500D01*
X0092200Y0122600D01*
X0092200Y0048500D01*
X0097900Y0042800D01*
X0120700Y0042800D01*
X0132100Y0031400D01*
X0164400Y0031400D01*
X0166000Y0031000D01*
X0146000Y0051000D02*
X0147300Y0052300D01*
X0147300Y0071300D01*
X0146000Y0071669D01*
X0151100Y0078900D02*
X0149740Y0080331D01*
X0149200Y0080800D01*
X0149200Y0082700D01*
X0128300Y0103600D01*
X0105500Y0103600D01*
X0104740Y0105331D01*
X0101000Y0096669D02*
X0101700Y0096000D01*
X0101700Y0052300D01*
X0101000Y0051000D01*
X0151100Y0078900D02*
X0173900Y0078900D01*
X0210000Y0042800D01*
X0362000Y0042800D01*
X0367700Y0037100D01*
X0368500Y0036000D01*
X0377200Y0044700D01*
X0377200Y0078900D01*
X0375300Y0080800D01*
X0375300Y0105500D01*
X0373500Y0106500D01*
X0367700Y0077000D02*
X0368500Y0076000D01*
X0367700Y0077000D02*
X0268900Y0077000D01*
X0268500Y0076000D01*
X0259400Y0056100D02*
X0259400Y0130200D01*
X0274600Y0145400D01*
X0276000Y0146000D01*
X0276500Y0147300D01*
X0284100Y0147300D01*
X0284100Y0208100D01*
X0276500Y0215700D01*
X0276500Y0240400D01*
X0276000Y0241000D01*
X0274600Y0206200D02*
X0276000Y0206000D01*
X0274600Y0206200D02*
X0145400Y0206200D01*
X0141600Y0210000D01*
X0113100Y0210000D01*
X0101000Y0191000D02*
X0051000Y0191000D01*
X0052300Y0181500D02*
X0051000Y0181000D01*
X0052300Y0181500D02*
X0099800Y0181500D01*
X0101000Y0181000D01*
X0101000Y0171000D02*
X0099800Y0170100D01*
X0052300Y0170100D01*
X0051000Y0171000D01*
X0051000Y0161000D02*
X0052300Y0160600D01*
X0099800Y0160600D01*
X0101000Y0161000D01*
X0151000Y0161000D02*
X0151100Y0162500D01*
X0151100Y0170100D01*
X0151000Y0171000D01*
X0151000Y0141000D02*
X0156000Y0136000D01*
X0181000Y0136000D01*
X0189031Y0144031D01*
X0189031Y0149000D01*
X0192969Y0149000D02*
X0194000Y0149000D01*
X0211000Y0166000D01*
X0284100Y0147300D02*
X0373400Y0147300D01*
X0373500Y0146500D01*
X0308500Y0056000D02*
X0306900Y0056100D01*
X0259400Y0056100D01*
X0210000Y0056100D01*
X0208500Y0056000D01*
X0176000Y0231000D02*
X0151000Y0231000D01*
X0151000Y0241000D02*
X0151100Y0242300D01*
X0166300Y0242300D01*
X0204300Y0280300D01*
X0206000Y0281000D01*
X0206000Y0271000D02*
X0187969Y0252969D01*
X0187969Y0249000D01*
X0184031Y0249000D02*
X0184031Y0239031D01*
X0176000Y0231000D01*
X0151000Y0251000D02*
X0151100Y0251800D01*
X0151100Y0259400D01*
X0151000Y0261000D01*
X0141600Y0301200D02*
X0101700Y0301200D01*
X0101000Y0301000D01*
X0101000Y0281000D02*
X0099800Y0280300D01*
X0052300Y0280300D01*
X0051000Y0281000D01*
X0051000Y0271000D02*
X0052300Y0270800D01*
X0099800Y0270800D01*
X0101000Y0271000D01*
X0099800Y0261300D02*
X0101000Y0261000D01*
X0099800Y0261300D02*
X0052300Y0261300D01*
X0051000Y0261000D01*
X0052300Y0251800D02*
X0051000Y0251000D01*
X0052300Y0251800D02*
X0099800Y0251800D01*
X0101000Y0251000D01*
X0141600Y0301200D02*
X0147300Y0306900D01*
X0268900Y0306900D01*
X0274600Y0301200D01*
X0276000Y0301000D01*
M02*
