%
M48
M72
T01C0.03150
T02C0.03200
T03C0.03937
T04C0.04000
T05C0.05200
%
T01
X101000Y141000
X101000Y151000
X101000Y161000
X101000Y171000
X101000Y181000
X101000Y191000
X101000Y201000
X101000Y211000
X101000Y231000
X101000Y241000
X101000Y251000
X101000Y261000
X101000Y271000
X101000Y281000
X101000Y291000
X101000Y301000
X151000Y301000
X151000Y291000
X151000Y281000
X151000Y271000
X151000Y261000
X151000Y251000
X151000Y241000
X151000Y231000
X151000Y211000
X151000Y201000
X151000Y191000
X151000Y181000
X151000Y171000
X151000Y161000
X151000Y151000
X151000Y141000
T02
X276000Y146000
X276000Y206000
X276000Y241000
X276000Y301000
X373500Y146500
X373500Y106500
T03
X16000Y16000
X51000Y161000
X51000Y171000
X51000Y181000
X51000Y191000
X51000Y251000
X51000Y261000
X51000Y271000
X51000Y281000
X16000Y301000
X206000Y281000
X206000Y271000
X211000Y176000
X211000Y166000
X381000Y301000
X381000Y16000
T04
X368500Y36000
X368500Y76000
X308500Y56000
X268500Y36000
X268500Y76000
X208500Y56000
T05
X166000Y31000
X146000Y51000
X121000Y31000
X101000Y51000
M30
